# Blender 4.3.2
# www.blender.org
mtllib 3rdPerson Visual.mtl
o Cube.002
v -1.006752 1.199931 -2.016317
v -1.006752 1.707802 -2.016317
v -1.006752 1.199931 2.999784
v -1.006752 1.707802 2.999784
v 3.031897 1.199931 -2.016317
v 3.031897 1.707802 -2.016317
v 3.031897 1.199931 2.999784
v 3.031897 1.707802 2.999784
v 3.031897 1.199931 -3.987690
v 3.031897 1.707802 -3.987690
v 3.031897 1.199931 2.999784
v 3.031897 1.707802 2.999784
v 4.049512 1.707802 2.999784
v 4.049512 1.199931 2.999784
v 4.049512 1.199931 -3.987690
v 4.049512 1.707802 -3.987690
v -1.006752 0.572423 -2.016317
v -1.006752 0.868523 -2.016317
v 3.031897 0.572423 -2.016317
v 3.031897 1.707802 -2.016317
v -1.006752 0.572423 -3.989563
v -1.006752 0.868523 -3.989563
v 3.031897 1.707802 -3.989563
v 3.031897 0.572423 -3.989563
v -1.006752 0.572423 -2.016317
v -1.006752 0.868523 -2.016317
v -1.006752 0.572423 -3.989563
v -1.006752 0.868523 -3.989563
v -3.002088 0.572423 -2.016317
v -3.002088 0.868523 -2.016317
v -3.002088 0.572423 -3.989563
v -3.002088 0.868523 -3.989563
v -1.006752 0.572423 -2.016317
v -1.006752 0.868523 -2.016317
v -3.002088 0.572423 -2.016317
v -3.002088 0.868523 -2.016317
v -1.006752 -0.270823 3.016961
v -1.006752 0.025278 3.016961
v -3.002088 -0.270823 3.016961
v -3.002088 0.025278 3.016961
v 7.702864 -0.292198 -10.846442
v 7.702864 1.707802 -10.846442
v 7.702864 -0.292198 0.450082
v 7.702864 1.707802 0.450082
v 10.163193 1.707802 0.450082
v 10.163193 -0.292198 0.450082
v 10.163193 -0.292198 -10.846442
v 10.163193 1.707802 -10.846442
v 7.702864 -0.292198 5.520579
v 7.702864 1.707802 5.520579
v 7.702864 -0.292198 10.431156
v 7.702864 1.707802 10.431156
v 10.163193 1.707802 10.431156
v 10.163193 -0.292198 10.431156
v 10.163193 -0.292198 5.520579
v 10.163193 1.707802 5.520579
vn -1.0000 -0.0000 -0.0000
vn -0.0000 -0.0000 1.0000
vn -0.0000 -0.0000 -1.0000
vn -0.0000 1.0000 -0.0000
vn 1.0000 -0.0000 -0.0000
vn -0.0000 -1.0000 -0.0000
vn -0.2035 0.9791 -0.0000
vn -0.0000 -0.9863 -0.1652
vn -0.0000 0.9863 0.1652
vn 0.6308 -0.7760 -0.0000
vt 0.375000 0.000000
vt 0.375000 0.250000
vt 0.625000 0.250000
vt 0.625000 0.000000
vt 0.375000 0.500000
vt 0.625000 0.500000
vt 0.625000 0.750000
vt 0.375000 0.750000
vt 0.375000 1.000000
vt 0.625000 1.000000
vt 0.125000 0.500000
vt 0.125000 0.750000
vt 0.875000 0.750000
vt 0.875000 0.500000
s 0
f 1/1/1 3/2/1 4/3/1 2/4/1
f 3/2/2 7/5/2 8/6/2 4/3/2
f 7/5/1 8/6/1 6/7/1 5/8/1
f 5/8/3 1/9/3 2/10/3 6/7/3
f 3/11/4 7/5/4 5/8/4 1/12/4
f 8/6/4 6/7/4 2/13/4 4/14/4
f 11/5/5 9/8/5 10/7/5 12/6/5
f 14/5/5 15/8/5 16/7/5 13/6/5
f 10/7/3 16/7/3 15/8/3 9/8/3
f 9/8/4 11/5/4 14/5/4 15/8/4
f 12/6/4 13/6/4 16/7/4 10/7/4
f 11/5/2 14/5/2 13/6/2 12/6/2
f 19/8/2 20/7/2 18/10/2 17/9/2
f 24/8/3 21/9/3 22/10/3 23/7/3
f 19/8/6 17/9/6 21/9/6 24/8/6
f 17/9/1 18/10/1 22/10/1 21/9/1
f 18/10/7 20/7/7 23/7/7 22/10/7
f 20/7/5 19/8/5 24/8/5 23/7/5
f 25/9/5 27/9/5 28/10/5 26/10/5
f 29/9/1 30/10/1 32/10/1 31/9/1
f 27/9/6 25/9/6 29/9/6 31/9/6
f 25/9/2 26/10/2 30/10/2 29/9/2
f 26/10/4 28/10/4 32/10/4 30/10/4
f 28/10/3 27/9/3 31/9/3 32/10/3
f 33/9/3 35/9/3 36/10/3 34/10/3
f 37/9/2 38/10/2 40/10/2 39/9/2
f 36/10/1 35/9/1 39/9/1 40/10/1
f 35/9/8 33/9/8 37/9/8 39/9/8
f 33/9/5 34/10/5 38/10/5 37/9/5
f 34/10/9 36/10/9 40/10/9 38/10/9
f 43/5/1 44/6/1 42/7/1 41/8/1
f 46/5/5 47/8/5 48/7/5 45/6/5
f 42/7/3 48/7/3 47/8/3 41/8/3
f 41/8/4 43/5/4 46/5/4 47/8/4
f 44/6/4 45/6/4 48/7/4 42/7/4
f 43/5/2 46/5/2 45/6/2 44/6/2
f 51/5/1 52/6/1 50/7/1 49/8/1
f 54/5/5 55/8/5 56/7/5 53/6/5
f 50/7/3 56/7/3 55/8/3 49/8/3
f 49/8/4 51/5/4 54/5/4 55/8/4
f 52/6/4 53/6/4 56/7/4 50/7/4
f 51/5/2 54/5/2 53/6/2 52/6/2
f 49/8/10 50/7/10 55/8/10 56/7/10 53/6/10 54/5/10 52/6/10 51/5/10
o Cylinder.002
v 0.000000 -1.000000 -1.000000
v 0.000000 1.000000 -1.000000
v 0.195090 -1.000000 -0.980785
v 0.195090 1.000000 -0.980785
v 0.382683 -1.000000 -0.923880
v 0.382683 1.000000 -0.923880
v 0.555570 -1.000000 -0.831470
v 0.555570 1.000000 -0.831470
v 0.707107 -1.000000 -0.707107
v 0.707107 1.000000 -0.707107
v 0.831470 -1.000000 -0.555570
v 0.831470 1.000000 -0.555570
v 0.923880 -1.000000 -0.382683
v 0.923880 1.000000 -0.382683
v 0.980785 -1.000000 -0.195090
v 0.980785 1.000000 -0.195090
v 1.000000 -1.000000 0.000000
v 1.000000 1.000000 0.000000
v 0.980785 -1.000000 0.195090
v 0.980785 1.000000 0.195090
v 0.923880 -1.000000 0.382683
v 0.923880 1.000000 0.382683
v 0.831470 -1.000000 0.555570
v 0.831470 1.000000 0.555570
v 0.707107 -1.000000 0.707107
v 0.707107 1.000000 0.707107
v 0.555570 -1.000000 0.831470
v 0.555570 1.000000 0.831470
v 0.382683 -1.000000 0.923880
v 0.382683 1.000000 0.923880
v 0.195090 -1.000000 0.980785
v 0.195090 1.000000 0.980785
v 0.000000 -1.000000 1.000000
v 0.000000 1.000000 1.000000
v -0.195090 -1.000000 0.980785
v -0.195090 1.000000 0.980785
v -0.382683 -1.000000 0.923880
v -0.382683 1.000000 0.923880
v -0.555570 -1.000000 0.831470
v -0.555570 1.000000 0.831470
v -0.707107 -1.000000 0.707107
v -0.707107 1.000000 0.707107
v -0.831470 -1.000000 0.555570
v -0.831470 1.000000 0.555570
v -0.923880 -1.000000 0.382683
v -0.923880 1.000000 0.382683
v -0.980785 -1.000000 0.195090
v -0.980785 1.000000 0.195090
v -1.000000 -1.000000 0.000000
v -1.000000 1.000000 0.000000
v -0.980785 -1.000000 -0.195090
v -0.980785 1.000000 -0.195090
v -0.923880 -1.000000 -0.382683
v -0.923880 1.000000 -0.382683
v -0.831470 -1.000000 -0.555570
v -0.831470 1.000000 -0.555570
v -0.707107 -1.000000 -0.707107
v -0.707107 1.000000 -0.707107
v -0.555570 -1.000000 -0.831470
v -0.555570 1.000000 -0.831470
v -0.382683 -1.000000 -0.923880
v -0.382683 1.000000 -0.923880
v -0.195090 -1.000000 -0.980785
v -0.195090 1.000000 -0.980785
vn 0.0980 -0.0000 -0.9952
vn 0.2903 -0.0000 -0.9569
vn 0.4714 -0.0000 -0.8819
vn 0.6344 -0.0000 -0.7730
vn 0.7730 -0.0000 -0.6344
vn 0.8819 -0.0000 -0.4714
vn 0.9569 -0.0000 -0.2903
vn 0.9952 -0.0000 -0.0980
vn 0.9952 -0.0000 0.0980
vn 0.9569 -0.0000 0.2903
vn 0.8819 -0.0000 0.4714
vn 0.7730 -0.0000 0.6344
vn 0.6344 -0.0000 0.7730
vn 0.4714 -0.0000 0.8819
vn 0.2903 -0.0000 0.9569
vn 0.0980 -0.0000 0.9952
vn -0.0980 -0.0000 0.9952
vn -0.2903 -0.0000 0.9569
vn -0.4714 -0.0000 0.8819
vn -0.6344 -0.0000 0.7730
vn -0.7730 -0.0000 0.6344
vn -0.8819 -0.0000 0.4714
vn -0.9569 -0.0000 0.2903
vn -0.9952 -0.0000 0.0980
vn -0.9952 -0.0000 -0.0980
vn -0.9569 -0.0000 -0.2903
vn -0.8819 -0.0000 -0.4714
vn -0.7730 -0.0000 -0.6344
vn -0.6344 -0.0000 -0.7730
vn -0.4714 -0.0000 -0.8819
vn -0.0000 1.0000 -0.0000
vn -0.2903 -0.0000 -0.9569
vn -0.0980 -0.0000 -0.9952
vn -0.0000 -1.0000 -0.0000
vt 1.000000 0.500000
vt 1.000000 1.000000
vt 0.968750 1.000000
vt 0.968750 0.500000
vt 0.937500 1.000000
vt 0.937500 0.500000
vt 0.906250 1.000000
vt 0.906250 0.500000
vt 0.875000 1.000000
vt 0.875000 0.500000
vt 0.843750 1.000000
vt 0.843750 0.500000
vt 0.812500 1.000000
vt 0.812500 0.500000
vt 0.781250 1.000000
vt 0.781250 0.500000
vt 0.750000 1.000000
vt 0.750000 0.500000
vt 0.718750 1.000000
vt 0.718750 0.500000
vt 0.687500 1.000000
vt 0.687500 0.500000
vt 0.656250 1.000000
vt 0.656250 0.500000
vt 0.625000 1.000000
vt 0.625000 0.500000
vt 0.593750 1.000000
vt 0.593750 0.500000
vt 0.562500 1.000000
vt 0.562500 0.500000
vt 0.531250 1.000000
vt 0.531250 0.500000
vt 0.500000 1.000000
vt 0.500000 0.500000
vt 0.468750 1.000000
vt 0.468750 0.500000
vt 0.437500 1.000000
vt 0.437500 0.500000
vt 0.406250 1.000000
vt 0.406250 0.500000
vt 0.375000 1.000000
vt 0.375000 0.500000
vt 0.343750 1.000000
vt 0.343750 0.500000
vt 0.312500 1.000000
vt 0.312500 0.500000
vt 0.281250 1.000000
vt 0.281250 0.500000
vt 0.250000 1.000000
vt 0.250000 0.500000
vt 0.218750 1.000000
vt 0.218750 0.500000
vt 0.187500 1.000000
vt 0.187500 0.500000
vt 0.156250 1.000000
vt 0.156250 0.500000
vt 0.125000 1.000000
vt 0.125000 0.500000
vt 0.093750 1.000000
vt 0.093750 0.500000
vt 0.062500 1.000000
vt 0.062500 0.500000
vt 0.296822 0.485388
vt 0.250000 0.490000
vt 0.203178 0.485388
vt 0.158156 0.471731
vt 0.116663 0.449553
vt 0.080294 0.419706
vt 0.050447 0.383337
vt 0.028269 0.341844
vt 0.014612 0.296822
vt 0.010000 0.250000
vt 0.014612 0.203178
vt 0.028269 0.158156
vt 0.050447 0.116663
vt 0.080294 0.080294
vt 0.116663 0.050447
vt 0.158156 0.028269
vt 0.203178 0.014612
vt 0.250000 0.010000
vt 0.296822 0.014612
vt 0.341844 0.028269
vt 0.383337 0.050447
vt 0.419706 0.080294
vt 0.449553 0.116663
vt 0.471731 0.158156
vt 0.485388 0.203178
vt 0.490000 0.250000
vt 0.485388 0.296822
vt 0.471731 0.341844
vt 0.449553 0.383337
vt 0.419706 0.419706
vt 0.383337 0.449553
vt 0.341844 0.471731
vt 0.031250 1.000000
vt 0.031250 0.500000
vt 0.000000 1.000000
vt 0.000000 0.500000
vt 0.750000 0.490000
vt 0.796822 0.485388
vt 0.841844 0.471731
vt 0.883337 0.449553
vt 0.919706 0.419706
vt 0.949553 0.383337
vt 0.971731 0.341844
vt 0.985388 0.296822
vt 0.990000 0.250000
vt 0.985388 0.203178
vt 0.971731 0.158156
vt 0.949553 0.116663
vt 0.919706 0.080294
vt 0.883337 0.050447
vt 0.841844 0.028269
vt 0.796822 0.014612
vt 0.750000 0.010000
vt 0.703178 0.014612
vt 0.658156 0.028269
vt 0.616663 0.050447
vt 0.580294 0.080294
vt 0.550447 0.116663
vt 0.528269 0.158156
vt 0.514612 0.203178
vt 0.510000 0.250000
vt 0.514612 0.296822
vt 0.528269 0.341844
vt 0.550447 0.383337
vt 0.580294 0.419706
vt 0.616663 0.449553
vt 0.658156 0.471731
vt 0.703178 0.485388
s 0
f 57/15/11 58/16/11 60/17/11 59/18/11
f 59/18/12 60/17/12 62/19/12 61/20/12
f 61/20/13 62/19/13 64/21/13 63/22/13
f 63/22/14 64/21/14 66/23/14 65/24/14
f 65/24/15 66/23/15 68/25/15 67/26/15
f 67/26/16 68/25/16 70/27/16 69/28/16
f 69/28/17 70/27/17 72/29/17 71/30/17
f 71/30/18 72/29/18 74/31/18 73/32/18
f 73/32/19 74/31/19 76/33/19 75/34/19
f 75/34/20 76/33/20 78/35/20 77/36/20
f 77/36/21 78/35/21 80/37/21 79/38/21
f 79/38/22 80/37/22 82/39/22 81/40/22
f 81/40/23 82/39/23 84/41/23 83/42/23
f 83/42/24 84/41/24 86/43/24 85/44/24
f 85/44/25 86/43/25 88/45/25 87/46/25
f 87/46/26 88/45/26 90/47/26 89/48/26
f 89/48/27 90/47/27 92/49/27 91/50/27
f 91/50/28 92/49/28 94/51/28 93/52/28
f 93/52/29 94/51/29 96/53/29 95/54/29
f 95/54/30 96/53/30 98/55/30 97/56/30
f 97/56/31 98/55/31 100/57/31 99/58/31
f 99/58/32 100/57/32 102/59/32 101/60/32
f 101/60/33 102/59/33 104/61/33 103/62/33
f 103/62/34 104/61/34 106/63/34 105/64/34
f 105/64/35 106/63/35 108/65/35 107/66/35
f 107/66/36 108/65/36 110/67/36 109/68/36
f 109/68/37 110/67/37 112/69/37 111/70/37
f 111/70/38 112/69/38 114/71/38 113/72/38
f 113/72/39 114/71/39 116/73/39 115/74/39
f 115/74/40 116/73/40 118/75/40 117/76/40
f 60/77/41 58/78/41 120/79/41 118/80/41 116/81/41 114/82/41 112/83/41 110/84/41 108/85/41 106/86/41 104/87/41 102/88/41 100/89/41 98/90/41 96/91/41 94/92/41 92/93/41 90/94/41 88/95/41 86/96/41 84/97/41 82/98/41 80/99/41 78/100/41 76/101/41 74/102/41 72/103/41 70/104/41 68/105/41 66/106/41 64/107/41 62/108/41
f 117/76/42 118/75/42 120/109/42 119/110/42
f 119/110/43 120/109/43 58/111/43 57/112/43
f 57/113/44 59/114/44 61/115/44 63/116/44 65/117/44 67/118/44 69/119/44 71/120/44 73/121/44 75/122/44 77/123/44 79/124/44 81/125/44 83/126/44 85/127/44 87/128/44 89/129/44 91/130/44 93/131/44 95/132/44 97/133/44 99/134/44 101/135/44 103/136/44 105/137/44 107/138/44 109/139/44 111/140/44 113/141/44 115/142/44 117/143/44 119/144/44
o Cylinder.003
v -10.617464 -1.106576 -7.566995
v -10.617464 0.797244 -7.566995
v -9.101425 -1.106576 -6.939031
v -9.101425 0.797244 -6.939031
v -8.473461 -1.106576 -5.422993
v -8.473461 0.797244 -5.422993
v -9.101425 -1.106576 -3.906954
v -9.101425 0.797244 -3.906954
v -10.617464 -1.106576 -3.278991
v -10.617464 0.797244 -3.278991
v -12.133502 -1.106576 -3.906954
v -12.133502 0.797244 -3.906954
v -12.761466 -1.106576 -5.422993
v -12.761466 0.797244 -5.422993
v -12.133502 -1.106576 -6.939031
v -12.133502 0.797244 -6.939031
vn 0.3827 -0.0000 -0.9239
vn 0.9239 -0.0000 -0.3827
vn 0.9239 -0.0000 0.3827
vn 0.3827 -0.0000 0.9239
vn -0.3827 -0.0000 0.9239
vn -0.9239 -0.0000 0.3827
vn -0.0000 1.0000 -0.0000
vn -0.9239 -0.0000 -0.3827
vn -0.3827 -0.0000 -0.9239
vn -0.0000 -1.0000 -0.0000
vt 1.000000 0.500000
vt 1.000000 1.000000
vt 0.875000 1.000000
vt 0.875000 0.500000
vt 0.750000 1.000000
vt 0.750000 0.500000
vt 0.625000 1.000000
vt 0.625000 0.500000
vt 0.500000 1.000000
vt 0.500000 0.500000
vt 0.375000 1.000000
vt 0.375000 0.500000
vt 0.250000 1.000000
vt 0.250000 0.500000
vt 0.419706 0.419706
vt 0.250000 0.490000
vt 0.080294 0.419706
vt 0.010000 0.250000
vt 0.080294 0.080294
vt 0.250000 0.010000
vt 0.419706 0.080294
vt 0.490000 0.250000
vt 0.125000 1.000000
vt 0.125000 0.500000
vt 0.000000 1.000000
vt 0.000000 0.500000
vt 0.750000 0.490000
vt 0.919706 0.419706
vt 0.990000 0.250000
vt 0.919706 0.080294
vt 0.750000 0.010000
vt 0.580294 0.080294
vt 0.510000 0.250000
vt 0.580294 0.419706
s 0
f 121/145/45 122/146/45 124/147/45 123/148/45
f 123/148/46 124/147/46 126/149/46 125/150/46
f 125/150/47 126/149/47 128/151/47 127/152/47
f 127/152/48 128/151/48 130/153/48 129/154/48
f 129/154/49 130/153/49 132/155/49 131/156/49
f 131/156/50 132/155/50 134/157/50 133/158/50
f 124/159/51 122/160/51 136/161/51 134/162/51 132/163/51 130/164/51 128/165/51 126/166/51
f 133/158/52 134/157/52 136/167/52 135/168/52
f 135/168/53 136/167/53 122/169/53 121/170/53
f 121/171/54 123/172/54 125/173/54 127/174/54 129/175/54 131/176/54 133/177/54 135/178/54
o Cube.003
v -16.111031 -0.125654 17.728411
v -16.111031 3.132807 17.728411
v -16.111031 -0.125654 15.728411
v -16.111031 3.132807 15.728411
v 16.111031 -0.125654 17.728411
v 16.111031 3.132807 17.728411
v 16.111031 -0.125654 15.728411
v 16.111031 3.132807 15.728411
v -16.111031 -0.125654 -14.271589
v -16.111031 3.132807 -14.271589
v -16.111031 -0.125654 -16.271589
v -16.111031 3.132807 -16.271589
v 16.111031 -0.125654 -14.271589
v 16.111031 3.132807 -14.271589
v 16.111031 -0.125654 -16.271589
v 16.111031 3.132807 -16.271589
v 17.000000 -0.125654 16.839441
v 17.000000 3.132807 16.839441
v 15.000002 -0.125654 16.839441
v 15.000002 3.132807 16.839441
v 17.000000 -0.125654 -15.382620
v 17.000000 3.132807 -15.382620
v 15.000000 -0.125654 -15.382620
v 15.000000 3.132807 -15.382620
v -14.999998 -0.125654 16.839441
v -14.999998 3.132807 16.839441
v -17.000000 -0.125654 16.839441
v -17.000000 3.132807 16.839441
v -15.000000 -0.125654 -15.382621
v -15.000000 3.132807 -15.382621
v -17.000000 -0.125654 -15.382621
v -17.000000 3.132807 -15.382621
vn -1.0000 -0.0000 -0.0000
vn -0.0000 -0.0000 -1.0000
vn 1.0000 -0.0000 -0.0000
vn -0.0000 -0.0000 1.0000
vn -0.0000 -1.0000 -0.0000
vn -0.0000 1.0000 -0.0000
vt 0.375000 0.000000
vt 0.625000 0.000000
vt 0.625000 0.250000
vt 0.375000 0.250000
vt 0.625000 0.500000
vt 0.375000 0.500000
vt 0.625000 0.750000
vt 0.375000 0.750000
vt 0.625000 1.000000
vt 0.375000 1.000000
vt 0.125000 0.500000
vt 0.125000 0.750000
vt 0.875000 0.500000
vt 0.875000 0.750000
s 0
f 137/179/55 138/180/55 140/181/55 139/182/55
f 139/182/56 140/181/56 144/183/56 143/184/56
f 143/184/57 144/183/57 142/185/57 141/186/57
f 141/186/58 142/185/58 138/187/58 137/188/58
f 139/189/59 143/184/59 141/186/59 137/190/59
f 144/183/60 140/191/60 138/192/60 142/185/60
f 145/179/55 146/180/55 148/181/55 147/182/55
f 147/182/56 148/181/56 152/183/56 151/184/56
f 151/184/57 152/183/57 150/185/57 149/186/57
f 149/186/58 150/185/58 146/187/58 145/188/58
f 147/189/59 151/184/59 149/186/59 145/190/59
f 152/183/60 148/191/60 146/192/60 150/185/60
f 153/179/58 154/180/58 156/181/58 155/182/58
f 155/182/55 156/181/55 160/183/55 159/184/55
f 159/184/56 160/183/56 158/185/56 157/186/56
f 157/186/57 158/185/57 154/187/57 153/188/57
f 155/189/59 159/184/59 157/186/59 153/190/59
f 160/183/60 156/191/60 154/192/60 158/185/60
f 161/179/58 162/180/58 164/181/58 163/182/58
f 163/182/55 164/181/55 168/183/55 167/184/55
f 167/184/56 168/183/56 166/185/56 165/186/56
f 165/186/57 166/185/57 162/187/57 161/188/57
f 163/189/59 167/184/59 165/186/59 161/190/59
f 168/183/60 164/191/60 162/192/60 166/185/60
