# Blender 4.3.2
# www.blender.org
mtllib 3rdPerson.mtl
o Plane
v -20.000000 0.000000 20.000000
v 20.000000 0.000000 20.000000
v -20.000000 0.000000 -20.000000
v 20.000000 0.000000 -20.000000
v -20.000000 0.000000 -6.666666
v -20.000000 0.000000 6.666667
v -6.666666 0.000000 20.000000
v 6.666667 0.000000 20.000000
v 20.000000 0.000000 6.666666
v 20.000000 0.000000 -6.666667
v 6.666666 0.000000 -20.000000
v -6.666667 0.000000 -20.000000
v -6.666667 0.000000 6.666666
v -6.666667 0.000000 -6.666667
v 6.666667 0.000000 6.666666
v 6.666666 0.000000 -6.666667
vn -0.0000 1.0000 -0.0000
vt 0.666667 0.666667
vt 1.000000 0.666667
vt 1.000000 1.000000
vt 0.666667 1.000000
vt 0.000000 0.666667
vt 0.333333 0.666667
vt 0.333333 1.000000
vt 0.000000 1.000000
vt 0.000000 0.000000
vt 0.333333 0.000000
vt 0.333333 0.333333
vt 0.000000 0.333333
vt 0.666667 0.000000
vt 0.666667 0.333333
vt 1.000000 0.000000
vt 1.000000 0.333333
s 0
f 16/1/1 10/2/1 4/3/1 11/4/1
f 5/5/1 14/6/1 12/7/1 3/8/1
f 14/6/1 16/1/1 11/4/1 12/7/1
f 1/9/1 7/10/1 13/11/1 6/12/1
f 6/12/1 13/11/1 14/6/1 5/5/1
f 7/10/1 8/13/1 15/14/1 13/11/1
f 13/11/1 15/14/1 16/1/1 14/6/1
f 8/13/1 2/15/1 9/16/1 15/14/1
f 15/14/1 9/16/1 10/2/1 16/1/1
o Cube
v -1.006752 -0.292198 -2.016317
v -1.006752 1.707802 -2.016317
v -1.006752 -0.292198 2.999784
v -1.006752 1.707802 2.999784
v 3.031897 -0.292198 -2.016317
v 3.031897 1.707802 -2.016317
v 3.031897 -0.292198 2.999784
v 3.031897 1.707802 2.999784
v 3.031897 -0.292198 -3.987690
v 3.031897 1.707802 -3.987690
v 3.031897 -0.292198 2.999784
v 3.031897 1.707802 2.999784
v 4.049512 1.707802 2.999784
v 4.049512 -0.292198 2.999784
v 4.049512 -0.292198 -3.987690
v 4.049512 1.707802 -3.987690
v -1.006752 -0.292198 -2.016317
v -1.006752 0.868523 -2.016317
v 3.031897 -0.292198 -2.016317
v 3.031897 1.707802 -2.016317
v -1.006752 -0.292198 -3.989563
v -1.006752 0.868523 -3.989563
v 3.031897 1.707802 -3.989563
v 3.031897 -0.292198 -3.989563
v -1.006752 -0.292198 -2.016317
v -1.006752 0.868523 -2.016317
v -1.006752 -0.292198 -3.989563
v -1.006752 0.868523 -3.989563
v -3.002088 -0.292198 -2.016317
v -3.002088 0.868523 -2.016317
v -3.002088 -0.292198 -3.989563
v -3.002088 0.868523 -3.989563
v -1.006752 -0.292198 -2.016317
v -1.006752 0.868523 -2.016317
v -3.002088 -0.292198 -2.016317
v -3.002088 0.868523 -2.016317
v -1.006752 -1.135444 3.016961
v -1.006752 0.025278 3.016961
v -3.002088 -1.135444 3.016961
v -3.002088 0.025278 3.016961
v 7.702864 -0.292198 -10.846442
v 7.702864 1.707802 -10.846442
v 7.702864 -0.292198 0.450082
v 7.702864 1.707802 0.450082
v 10.163193 1.707802 0.450082
v 10.163193 -0.292198 0.450082
v 10.163193 -0.292198 -10.846442
v 10.163193 1.707802 -10.846442
v 7.702864 -0.292198 5.520579
v 7.702864 1.707802 5.520579
v 7.702864 -0.292198 10.431156
v 7.702864 1.707802 10.431156
v 10.163193 1.707802 10.431156
v 10.163193 -0.292198 10.431156
v 10.163193 -0.292198 5.520579
v 10.163193 1.707802 5.520579
vn -1.0000 -0.0000 -0.0000
vn -0.0000 -0.0000 1.0000
vn -0.0000 -0.0000 -1.0000
vn -0.0000 1.0000 -0.0000
vn 1.0000 -0.0000 -0.0000
vn -0.0000 -1.0000 -0.0000
vn -0.2035 0.9791 -0.0000
vn -0.0000 -0.9863 -0.1652
vn -0.0000 0.9863 0.1652
vt 0.375000 0.000000
vt 0.375000 0.250000
vt 0.625000 0.250000
vt 0.625000 0.000000
vt 0.375000 0.500000
vt 0.625000 0.500000
vt 0.625000 0.750000
vt 0.375000 0.750000
vt 0.375000 1.000000
vt 0.625000 1.000000
vt 0.125000 0.500000
vt 0.125000 0.750000
vt 0.875000 0.750000
vt 0.875000 0.500000
s 0
f 17/17/2 19/18/2 20/19/2 18/20/2
f 19/18/3 23/21/3 24/22/3 20/19/3
f 23/21/2 24/22/2 22/23/2 21/24/2
f 21/24/4 17/25/4 18/26/4 22/23/4
f 19/27/5 23/21/5 21/24/5 17/28/5
f 24/22/5 22/23/5 18/29/5 20/30/5
f 27/21/6 25/24/6 26/23/6 28/22/6
f 30/21/6 31/24/6 32/23/6 29/22/6
f 26/23/4 32/23/4 31/24/4 25/24/4
f 25/24/5 27/21/5 30/21/5 31/24/5
f 28/22/5 29/22/5 32/23/5 26/23/5
f 27/21/3 30/21/3 29/22/3 28/22/3
f 35/24/3 36/23/3 34/26/3 33/25/3
f 40/24/4 37/25/4 38/26/4 39/23/4
f 35/24/7 33/25/7 37/25/7 40/24/7
f 33/25/2 34/26/2 38/26/2 37/25/2
f 34/26/8 36/23/8 39/23/8 38/26/8
f 36/23/6 35/24/6 40/24/6 39/23/6
f 41/25/6 43/25/6 44/26/6 42/26/6
f 45/25/2 46/26/2 48/26/2 47/25/2
f 43/25/7 41/25/7 45/25/7 47/25/7
f 41/25/3 42/26/3 46/26/3 45/25/3
f 42/26/5 44/26/5 48/26/5 46/26/5
f 44/26/4 43/25/4 47/25/4 48/26/4
f 49/25/4 51/25/4 52/26/4 50/26/4
f 53/25/3 54/26/3 56/26/3 55/25/3
f 52/26/2 51/25/2 55/25/2 56/26/2
f 51/25/9 49/25/9 53/25/9 55/25/9
f 49/25/6 50/26/6 54/26/6 53/25/6
f 50/26/10 52/26/10 56/26/10 54/26/10
f 59/21/2 60/22/2 58/23/2 57/24/2
f 62/21/6 63/24/6 64/23/6 61/22/6
f 58/23/4 64/23/4 63/24/4 57/24/4
f 57/24/5 59/21/5 62/21/5 63/24/5
f 60/22/5 61/22/5 64/23/5 58/23/5
f 59/21/3 62/21/3 61/22/3 60/22/3
f 67/21/2 68/22/2 66/23/2 65/24/2
f 70/21/6 71/24/6 72/23/6 69/22/6
f 66/23/4 72/23/4 71/24/4 65/24/4
f 68/22/5 69/22/5 72/23/5 66/23/5
f 67/21/3 70/21/3 69/22/3 68/22/3
o Cylinder.001
v -10.617464 -1.106576 -7.566995
v -10.617464 0.797244 -7.566995
v -9.101425 -1.106576 -6.939031
v -9.101425 0.797244 -6.939031
v -8.473461 -1.106576 -5.422993
v -8.473461 0.797244 -5.422993
v -9.101425 -1.106576 -3.906954
v -9.101425 0.797244 -3.906954
v -10.617464 -1.106576 -3.278991
v -10.617464 0.797244 -3.278991
v -12.133502 -1.106576 -3.906954
v -12.133502 0.797244 -3.906954
v -12.761466 -1.106576 -5.422993
v -12.761466 0.797244 -5.422993
v -12.133502 -1.106576 -6.939031
v -12.133502 0.797244 -6.939031
vn 0.3827 -0.0000 -0.9239
vn 0.9239 -0.0000 -0.3827
vn 0.9239 -0.0000 0.3827
vn 0.3827 -0.0000 0.9239
vn -0.3827 -0.0000 0.9239
vn -0.9239 -0.0000 0.3827
vn -0.0000 1.0000 -0.0000
vn -0.9239 -0.0000 -0.3827
vn -0.3827 -0.0000 -0.9239
vt 1.000000 0.500000
vt 1.000000 1.000000
vt 0.875000 1.000000
vt 0.875000 0.500000
vt 0.750000 1.000000
vt 0.750000 0.500000
vt 0.625000 1.000000
vt 0.625000 0.500000
vt 0.500000 1.000000
vt 0.500000 0.500000
vt 0.375000 1.000000
vt 0.375000 0.500000
vt 0.250000 1.000000
vt 0.250000 0.500000
vt 0.419706 0.419706
vt 0.250000 0.490000
vt 0.080294 0.419706
vt 0.010000 0.250000
vt 0.080294 0.080294
vt 0.250000 0.010000
vt 0.419706 0.080294
vt 0.490000 0.250000
vt 0.125000 1.000000
vt 0.125000 0.500000
vt 0.000000 1.000000
vt 0.000000 0.500000
s 0
f 73/31/11 74/32/11 76/33/11 75/34/11
f 75/34/12 76/33/12 78/35/12 77/36/12
f 77/36/13 78/35/13 80/37/13 79/38/13
f 79/38/14 80/37/14 82/39/14 81/40/14
f 81/40/15 82/39/15 84/41/15 83/42/15
f 83/42/16 84/41/16 86/43/16 85/44/16
f 76/45/17 74/46/17 88/47/17 86/48/17 84/49/17 82/50/17 80/51/17 78/52/17
f 85/44/18 86/43/18 88/53/18 87/54/18
f 87/54/19 88/53/19 74/55/19 73/56/19
o Cube.001
v -16.111031 -0.125654 15.728411
v -16.111031 3.132807 15.728411
v 16.111031 -0.125654 15.728411
v 16.111031 3.132807 15.728411
v -16.111031 -0.125654 -14.271589
v -16.111031 3.132807 -14.271589
v 16.111031 -0.125654 -14.271589
v 16.111031 3.132807 -14.271589
v 15.000002 -0.125654 16.839441
v 15.000002 3.132807 16.839441
v 15.000000 -0.125654 -15.382620
v 15.000000 3.132807 -15.382620
v -14.999998 -0.125654 16.839441
v -14.999998 3.132807 16.839441
v -15.000000 -0.125654 -15.382621
v -15.000000 3.132807 -15.382621
v -5.370343 -0.125654 -14.271589
v 5.370343 -0.125654 -14.271589
v 5.370343 3.132807 -14.271589
v -5.370343 3.132807 -14.271589
v 15.000001 -0.125654 -4.641932
v 15.000002 -0.125654 6.098754
v 15.000001 3.132807 6.098754
v 15.000000 3.132807 -4.641932
v 5.370343 -0.125654 15.728411
v -5.370343 -0.125654 15.728411
v -5.370343 3.132807 15.728411
v 5.370343 3.132807 15.728411
v -14.999999 -0.125654 6.098754
v -15.000000 -0.125654 -4.641933
v -14.999999 3.132807 -4.641933
v -14.999998 3.132807 6.098754
vn -0.0000 -0.0000 -1.0000
vn -0.0000 -0.0000 1.0000
vn -1.0000 -0.0000 -0.0000
vn 1.0000 -0.0000 -0.0000
vt 0.375000 0.416667
vt 0.625000 0.416667
vt 0.625000 0.500000
vt 0.375000 0.500000
vt 0.375000 0.916667
vt 0.625000 0.916667
vt 0.625000 1.000000
vt 0.375000 1.000000
vt 0.375000 0.250000
vt 0.625000 0.250000
vt 0.625000 0.333333
vt 0.375000 0.333333
vt 0.375000 0.750000
vt 0.625000 0.750000
vt 0.625000 0.833333
vt 0.375000 0.833333
s 0
f 113/57/20 116/58/20 92/59/20 91/60/20
f 105/61/21 108/62/21 94/63/21 93/64/21
f 109/57/22 112/58/22 100/59/22 99/60/22
f 117/61/23 120/62/23 102/63/23 101/64/23
f 97/65/22 98/66/22 111/67/22 110/68/22
f 110/68/22 111/67/22 112/58/22 109/57/22
f 95/69/21 96/70/21 107/71/21 106/72/21
f 106/72/21 107/71/21 108/62/21 105/61/21
f 89/65/20 90/66/20 115/67/20 114/68/20
f 114/68/20 115/67/20 116/58/20 113/57/20
f 103/69/23 104/70/23 119/71/23 118/72/23
f 118/72/23 119/71/23 120/62/23 117/61/23
